<?xml version="1.0" encoding="UTF-8" standalone="no"?>
<!DOCTYPE svg PUBLIC "-//W3C//DTD SVG 1.1//EN"
 "http://www.w3.org/Graphics/SVG/1.1/DTD/svg11.dtd">
<!-- Generated by graphviz version 2.42.4 (0)
 -->
<!-- Title: approval_workflow Pages: 1 -->
<svg width="62pt" height="196pt"
 viewBox="0.00 0.00 62.00 196.00" xmlns="http://www.w3.org/2000/svg" xmlns:xlink="http://www.w3.org/1999/xlink">
<g id="graph0" class="graph" transform="scale(1 1) rotate(0) translate(4 192)">
<title>approval_workflow</title>
<polygon fill="white" stroke="transparent" points="-4,4 -4,-192 58,-192 58,4 -4,4"/>
<!-- Original Draft -->
<g id="node1" class="node">
<title>Original Draft</title>
<ellipse fill="transparent" stroke="black" stroke-width="2" cx="7" cy="-182.5" rx="5.5" ry="5.5"/>
<text text-anchor="middle" x="7" y="-179.4" font-family="Helvetica,sans-Serif" font-size="12.00">Original Draft</text>
</g>
<!-- Review -->
<g id="node2" class="node">
<title>Review</title>
<ellipse fill="transparent" stroke="black" stroke-width="2" cx="7" cy="-144.5" rx="5.5" ry="5.5"/>
<text text-anchor="middle" x="7" y="-141.4" font-family="Helvetica,sans-Serif" font-size="12.00">Review</text>
</g>
<!-- Original Draft&#45;&gt;Review -->
<g id="edge1" class="edge">
<title>Original Draft&#45;&gt;Review</title>
<path fill="none" stroke="black" d="M7,-176.79C7,-172.61 7,-166.27 7,-160.38"/>
<polygon fill="black" stroke="black" points="10.5,-160.32 7,-150.32 3.5,-160.32 10.5,-160.32"/>
<text text-anchor="start" x="7" y="-161" font-family="Helvetica,sans-Serif" font-size="10.00"> &#160;&#160;&#160;</text>
</g>
<!-- Approved -->
<g id="node3" class="node">
<title>Approved</title>
<ellipse fill="transparent" stroke="black" stroke-width="2" cx="7" cy="-106.5" rx="5.5" ry="5.5"/>
<text text-anchor="middle" x="7" y="-103.4" font-family="Helvetica,sans-Serif" font-size="12.00">Approved</text>
</g>
<!-- Review&#45;&gt;Approved -->
<g id="edge2" class="edge">
<title>Review&#45;&gt;Approved</title>
<path fill="none" stroke="black" d="M7,-138.79C7,-134.61 7,-128.27 7,-122.38"/>
<polygon fill="black" stroke="black" points="10.5,-122.32 7,-112.32 3.5,-122.32 10.5,-122.32"/>
<text text-anchor="start" x="7" y="-123" font-family="Helvetica,sans-Serif" font-size="10.00"> &#160;&#160;&#160;</text>
</g>
<!-- Reviewed -->
<g id="node4" class="node">
<title>Reviewed</title>
<ellipse fill="transparent" stroke="black" stroke-width="2" cx="7" cy="-68.5" rx="5.5" ry="5.5"/>
<text text-anchor="middle" x="7" y="-65.4" font-family="Helvetica,sans-Serif" font-size="12.00">Reviewed</text>
</g>
<!-- Approved&#45;&gt;Reviewed -->
<g id="edge3" class="edge">
<title>Approved&#45;&gt;Reviewed</title>
<path fill="none" stroke="black" d="M7,-100.79C7,-96.61 7,-90.27 7,-84.38"/>
<polygon fill="black" stroke="black" points="10.5,-84.32 7,-74.32 3.5,-84.32 10.5,-84.32"/>
<text text-anchor="start" x="7" y="-85" font-family="Helvetica,sans-Serif" font-size="10.00"> &#160;&#160;&#160;</text>
</g>
<!-- Draft -->
<g id="node5" class="node">
<title>Draft</title>
<polygon fill="transparent" stroke="transparent" stroke-width="2" points="54,-36 0,-36 0,0 54,0 54,-36"/>
<text text-anchor="middle" x="27" y="-14.9" font-family="Helvetica,sans-Serif" font-size="12.00">Draft</text>
</g>
<!-- Reviewed&#45;&gt;Draft -->
<g id="edge4" class="edge">
<title>Reviewed&#45;&gt;Draft</title>
<path fill="none" stroke="black" d="M6.14,-63.02C5.59,-59.39 5.1,-54.06 7.5,-45.63"/>
<polygon fill="black" stroke="black" points="10.83,-46.72 10.96,-36.13 4.25,-44.33 10.83,-46.72"/>
<text text-anchor="start" x="7" y="-47" font-family="Helvetica,sans-Serif" font-size="10.00"> &#160;&#160;&#160;</text>
</g>
<!-- Rejected -->
<g id="node6" class="node">
<title>Rejected</title>
<ellipse fill="transparent" stroke="black" stroke-width="2" cx="47" cy="-68.5" rx="5.5" ry="5.5"/>
<text text-anchor="middle" x="47" y="-65.4" font-family="Helvetica,sans-Serif" font-size="12.00">Rejected</text>
</g>
<!-- Rejected&#45;&gt;Draft -->
<g id="edge5" class="edge">
<title>Rejected&#45;&gt;Draft</title>
<path fill="none" stroke="black" d="M45.15,-63.02C43.43,-58.83 40.69,-52.2 37.86,-45.35"/>
<polygon fill="black" stroke="black" points="41.09,-43.98 34.04,-36.07 34.61,-46.64 41.09,-43.98"/>
<text text-anchor="start" x="41" y="-47" font-family="Helvetica,sans-Serif" font-size="10.00"> &#160;&#160;&#160;</text>
</g>
</g>
</svg>
