<?xml version="1.0" encoding="UTF-8" standalone="no"?>
<!DOCTYPE svg PUBLIC "-//W3C//DTD SVG 1.1//EN"
 "http://www.w3.org/Graphics/SVG/1.1/DTD/svg11.dtd">
<!-- Generated by graphviz version 2.42.4 (0)
 -->
<!-- Title: smart_door_locks Pages: 1 -->
<svg width="286pt" height="171pt"
 viewBox="0.00 0.00 285.86 171.00" xmlns="http://www.w3.org/2000/svg" xmlns:xlink="http://www.w3.org/1999/xlink">
<g id="graph0" class="graph" transform="scale(1 1) rotate(0) translate(4 167)">
<title>smart_door_locks</title>
<polygon fill="white" stroke="transparent" points="-4,4 -4,-167 281.86,-167 281.86,4 -4,4"/>
<!-- Locked -->
<g id="node1" class="node node sealed">
<title>Locked</title>
<polygon fill="transparent" stroke="transparent" stroke-width="2" points="162.36,-163 97.36,-163 97.36,-127 162.36,-127 162.36,-163"/>
<text text-anchor="start" x="108.86" y="-141.4" font-family="Helvetica,sans-Serif" font-size="12.00">Locked</text>
<path fill="none" stroke="black" stroke-width="2" d="M109.36,-128.5C109.36,-128.5 150.36,-128.5 150.36,-128.5 155.86,-128.5 161.36,-134 161.36,-139.5 161.36,-139.5 161.36,-150.5 161.36,-150.5 161.36,-156 155.86,-161.5 150.36,-161.5 150.36,-161.5 109.36,-161.5 109.36,-161.5 103.86,-161.5 98.36,-156 98.36,-150.5 98.36,-150.5 98.36,-139.5 98.36,-139.5 98.36,-134 103.86,-128.5 109.36,-128.5"/>
</g>
<!-- Locked&#45;&gt;Locked -->
<g id="edge3" class="edge transition">
<title>Locked&#45;&gt;Locked</title>
<path fill="none" stroke="black" d="M162.58,-150.62C174.55,-150.77 184.36,-148.9 184.36,-145 184.36,-142.32 179.72,-140.6 172.94,-139.83"/>
<polygon fill="black" stroke="black" points="172.72,-136.32 162.58,-139.38 172.42,-143.31 172.72,-136.32"/>
<text text-anchor="start" x="184.36" y="-142.5" font-family="Helvetica,sans-Serif" font-size="10.00">power_on &#160;</text>
</g>
<!-- Unlocked -->
<g id="node2" class="node node">
<title>Unlocked</title>
<polygon fill="transparent" stroke="transparent" stroke-width="2" points="84.86,-100 6.86,-100 6.86,-64 84.86,-64 84.86,-100"/>
<text text-anchor="start" x="17.86" y="-78.4" font-family="Helvetica,sans-Serif" font-size="12.00">Unlocked</text>
<path fill="none" stroke="black" stroke-width="2" d="M18.86,-65.5C18.86,-65.5 72.86,-65.5 72.86,-65.5 78.36,-65.5 83.86,-71 83.86,-76.5 83.86,-76.5 83.86,-87.5 83.86,-87.5 83.86,-93 78.36,-98.5 72.86,-98.5 72.86,-98.5 18.86,-98.5 18.86,-98.5 13.36,-98.5 7.86,-93 7.86,-87.5 7.86,-87.5 7.86,-76.5 7.86,-76.5 7.86,-71 13.36,-65.5 18.86,-65.5"/>
</g>
<!-- Locked&#45;&gt;Unlocked -->
<g id="edge1" class="edge transition">
<title>Locked&#45;&gt;Unlocked</title>
<path fill="none" stroke="black" d="M97.28,-142.17C63.69,-139.53 14.6,-133.28 2.86,-119 -0.36,-115.09 -0.49,-111.28 1.34,-107.69"/>
<polygon fill="black" stroke="black" points="3.96,-110.02 8.05,-100.24 -1.25,-105.33 3.96,-110.02"/>
<text text-anchor="start" x="2.86" y="-111" font-family="Helvetica,sans-Serif" font-size="10.00">entry_press &#160;</text>
</g>
<!-- Jammed -->
<g id="node3" class="node node isolated">
<title>Jammed</title>
<polygon fill="transparent" stroke="transparent" stroke-width="2" points="165.36,-37 90.36,-37 90.36,0 165.36,0 165.36,-37"/>
<text text-anchor="start" x="102.86" y="-14.9" font-family="Helvetica,sans-Serif" font-size="12.00">Jammed</text>
<path fill="none" stroke="black" stroke-width="3" d="M103.19,-1.5C103.19,-1.5 152.53,-1.5 152.53,-1.5 158.19,-1.5 163.86,-7.17 163.86,-12.83 163.86,-12.83 163.86,-24.17 163.86,-24.17 163.86,-29.83 158.19,-35.5 152.53,-35.5 152.53,-35.5 103.19,-35.5 103.19,-35.5 97.53,-35.5 91.86,-29.83 91.86,-24.17 91.86,-24.17 91.86,-12.83 91.86,-12.83 91.86,-7.17 97.53,-1.5 103.19,-1.5"/>
</g>
<!-- Locked&#45;&gt;Jammed -->
<g id="edge4" class="edge transition">
<title>Locked&#45;&gt;Jammed</title>
<path fill="none" stroke="black" d="M145.9,-126.87C147.51,-124.38 148.9,-121.73 149.86,-119 159.81,-90.63 161.15,-78.05 149.37,-46.55"/>
<polygon fill="black" stroke="black" points="152.59,-45.18 145.69,-37.14 146.07,-47.73 152.59,-45.18"/>
<text text-anchor="start" x="157.86" y="-79.5" font-family="Helvetica,sans-Serif" font-size="10.00">power_off &#160;</text>
</g>
<!-- Unlocked&#45;&gt;Locked -->
<g id="edge2" class="edge transition">
<title>Unlocked&#45;&gt;Locked</title>
<path fill="none" stroke="black" d="M68.2,-100.02C76.24,-106.08 85.41,-112.9 93.86,-119 94.75,-119.65 95.66,-120.3 96.58,-120.96"/>
<polygon fill="black" stroke="black" points="94.8,-123.98 104.99,-126.9 98.85,-118.27 94.8,-123.98"/>
<text text-anchor="start" x="93.86" y="-111" font-family="Helvetica,sans-Serif" font-size="10.00">power_off &#160;</text>
</g>
<!-- Unlocked&#45;&gt;Jammed -->
<g id="edge7" class="edge transition">
<title>Unlocked&#45;&gt;Jammed</title>
<path fill="none" stroke="black" d="M66.68,-63.84C74.21,-57.77 82.83,-50.97 90.86,-45 91.74,-44.35 92.63,-43.69 93.53,-43.03"/>
<polygon fill="black" stroke="black" points="95.72,-45.77 101.82,-37.1 91.65,-40.08 95.72,-45.77"/>
<text text-anchor="start" x="90.86" y="-48" font-family="Helvetica,sans-Serif" font-size="10.00">door_open &#160;</text>
</g>
<!-- Jammed&#45;&gt;Locked -->
<g id="edge5" class="edge transition">
<title>Jammed&#45;&gt;Locked</title>
<path fill="none" stroke="black" d="M165.41,-27.99C184.64,-34.45 206.36,-45.49 217.86,-64 226.3,-77.59 226.27,-86.39 217.86,-100 207.71,-116.43 189.36,-126.93 172.03,-133.53"/>
<polygon fill="black" stroke="black" points="170.87,-130.23 162.57,-136.81 173.16,-136.84 170.87,-130.23"/>
<text text-anchor="start" x="223.86" y="-79.5" font-family="Helvetica,sans-Serif" font-size="10.00">power_on &#160;</text>
</g>
<!-- Jammed&#45;&gt;Unlocked -->
<g id="edge6" class="edge transition">
<title>Jammed&#45;&gt;Unlocked</title>
<path fill="none" stroke="black" d="M90.21,-22.57C59.59,-25.94 19.86,-32.6 9.86,-45 6.93,-48.64 6.74,-52.31 8.29,-55.84"/>
<polygon fill="black" stroke="black" points="5.63,-58.12 14.59,-63.76 11.1,-53.76 5.63,-58.12"/>
<text text-anchor="start" x="9.86" y="-48" font-family="Helvetica,sans-Serif" font-size="10.00">power_on &#160;</text>
</g>
</g>
</svg>
