<?xml version="1.0" encoding="UTF-8" standalone="no"?>
<!DOCTYPE svg PUBLIC "-//W3C//DTD SVG 1.1//EN"
 "http://www.w3.org/Graphics/SVG/1.1/DTD/svg11.dtd">
<!-- Generated by graphviz version 2.42.4 (0)
 -->
<!-- Title: smart_door_lock Pages: 1 -->
<svg width="335pt" height="116pt"
 viewBox="0.00 0.00 334.64 116.00" xmlns="http://www.w3.org/2000/svg" xmlns:xlink="http://www.w3.org/1999/xlink">
<g id="graph0" class="graph" transform="scale(1 1) rotate(0) translate(4 112)">
<title>smart_door_lock</title>
<polygon fill="white" stroke="transparent" points="-4,4 -4,-112 330.64,-112 330.64,4 -4,4"/>
<!-- State -->
<g id="node1" class="node">
<title>State</title>
<ellipse fill="none" stroke="black" cx="100.55" cy="-18" rx="36" ry="18"/>
<text text-anchor="middle" x="100.55" y="-14.3" font-family="Times,serif" font-size="14.00">State</text>
</g>
<!-- Locked -->
<g id="node2" class="node">
<title>Locked</title>
<ellipse fill="none" stroke="black" cx="43.55" cy="-90" rx="43.59" ry="18"/>
<text text-anchor="middle" x="43.55" y="-86.3" font-family="Times,serif" font-size="14.00">Locked</text>
</g>
<!-- Locked&#45;&gt;State -->
<g id="edge1" class="edge">
<title>Locked&#45;&gt;State</title>
<path fill="none" stroke="black" d="M45.8,-71.7C51.75,-61.92 61.55,-49.65 71.53,-39.41"/>
<polygon fill="black" stroke="black" points="74.04,-41.85 78.77,-32.38 69.16,-36.83 74.04,-41.85"/>
</g>
<!-- Locked&#45;&gt;State -->
<g id="edge3" class="edge">
<title>Locked&#45;&gt;State</title>
<path fill="none" stroke="black" d="M56.77,-72.76C63.96,-63.93 73,-52.83 80.99,-43.01"/>
<polygon fill="black" stroke="black" points="83.8,-45.11 87.4,-35.15 78.37,-40.69 83.8,-45.11"/>
</g>
<!-- Locked&#45;&gt;State -->
<g id="edge5" class="edge">
<title>Locked&#45;&gt;State</title>
<path fill="none" stroke="black" d="M66.54,-74.5C75.77,-65.89 85.48,-54.72 92.71,-44.66"/>
<polygon fill="black" stroke="black" points="95.72,-46.47 98.35,-36.2 89.89,-42.59 95.72,-46.47"/>
</g>
<!-- Unlocked -->
<g id="node3" class="node">
<title>Unlocked</title>
<ellipse fill="none" stroke="black" cx="158.55" cy="-90" rx="53.89" ry="18"/>
<text text-anchor="middle" x="158.55" y="-86.3" font-family="Times,serif" font-size="14.00">Unlocked</text>
</g>
<!-- Unlocked&#45;&gt;State -->
<g id="edge2" class="edge">
<title>Unlocked&#45;&gt;State</title>
<path fill="none" stroke="black" d="M139.62,-73.12C131.5,-64.51 122.27,-53.67 114.73,-43.96"/>
<polygon fill="black" stroke="black" points="117.4,-41.69 108.6,-35.8 111.81,-45.9 117.4,-41.69"/>
</g>
<!-- Unlocked&#45;&gt;State -->
<g id="edge4" class="edge">
<title>Unlocked&#45;&gt;State</title>
<path fill="none" stroke="black" d="M150.38,-72.05C143.74,-62.86 134.38,-51.38 125.49,-41.45"/>
<polygon fill="black" stroke="black" points="127.88,-38.87 118.52,-33.89 122.73,-43.61 127.88,-38.87"/>
</g>
<!-- Jammed -->
<g id="node4" class="node">
<title>Jammed</title>
<ellipse fill="none" stroke="black" cx="278.55" cy="-90" rx="48.19" ry="18"/>
<text text-anchor="middle" x="278.55" y="-86.3" font-family="Times,serif" font-size="14.00">Jammed</text>
</g>
<!-- Jammed&#45;&gt;State -->
<g id="edge6" class="edge">
<title>Jammed&#45;&gt;State</title>
<path fill="none" stroke="black" d="M246.72,-76.49C216.09,-64.44 169.79,-46.23 137.54,-33.55"/>
<polygon fill="black" stroke="black" points="138.6,-30.2 128.01,-29.8 136.03,-36.72 138.6,-30.2"/>
</g>
</g>
</svg>
