<?xml version="1.0" encoding="UTF-8" standalone="no"?>
<!DOCTYPE svg PUBLIC "-//W3C//DTD SVG 1.1//EN"
 "http://www.w3.org/Graphics/SVG/1.1/DTD/svg11.dtd">
<!-- Generated by graphviz version 2.42.4 (0)
 -->
<!-- Title: login_workflow Pages: 1 -->
<svg width="507pt" height="305pt"
 viewBox="0.00 0.00 506.99 305.00" xmlns="http://www.w3.org/2000/svg" xmlns:xlink="http://www.w3.org/1999/xlink">
<g id="graph0" class="graph" transform="scale(1 1) rotate(0) translate(4 301)">
<title>login_workflow</title>
<polygon fill="white" stroke="transparent" points="-4,4 -4,-301 502.99,-301 502.99,4 -4,4"/>
<!-- StateA -->
<g id="node1" class="node">
<title>StateA</title>
<ellipse fill="none" stroke="black" cx="64.99" cy="-279" rx="64.99" ry="18"/>
<text text-anchor="middle" x="64.99" y="-275.3" font-family="Times,serif" font-size="14.00">Logged Out</text>
</g>
<!-- StateB -->
<g id="node2" class="node">
<title>StateB</title>
<ellipse fill="none" stroke="black" cx="64.99" cy="-192" rx="60.39" ry="18"/>
<text text-anchor="middle" x="64.99" y="-188.3" font-family="Times,serif" font-size="14.00">Logging In</text>
</g>
<!-- StateA&#45;&gt;StateB -->
<g id="edge1" class="edge">
<title>StateA&#45;&gt;StateB</title>
<path fill="none" stroke="black" d="M28.2,-263.97C19.38,-258.77 11.06,-251.9 5.99,-243 -1.04,-230.65 7.83,-219.97 20.64,-211.69"/>
<polygon fill="black" stroke="black" points="22.58,-214.61 29.51,-206.59 19.1,-208.54 22.58,-214.61"/>
<text text-anchor="middle" x="54.49" y="-231.8" font-family="Times,serif" font-size="14.00">Submit Login</text>
</g>
<!-- StateB&#45;&gt;StateA -->
<g id="edge8" class="edge">
<title>StateB&#45;&gt;StateA</title>
<path fill="none" stroke="black" d="M88.45,-208.63C99.25,-217.91 108.55,-230.32 102.99,-243 101.16,-247.18 98.56,-251.08 95.56,-254.65"/>
<polygon fill="black" stroke="black" points="92.97,-252.29 88.52,-261.9 97.99,-257.17 92.97,-252.29"/>
<text text-anchor="middle" x="128.49" y="-231.8" font-family="Times,serif" font-size="14.00">Cancel</text>
</g>
<!-- StateC -->
<g id="node3" class="node">
<title>StateC</title>
<ellipse fill="none" stroke="black" cx="131.99" cy="-18" rx="57.39" ry="18"/>
<text text-anchor="middle" x="131.99" y="-14.3" font-family="Times,serif" font-size="14.00">Logged In</text>
</g>
<!-- StateB&#45;&gt;StateC -->
<g id="edge2" class="edge">
<title>StateB&#45;&gt;StateC</title>
<path fill="none" stroke="black" d="M55.73,-174.13C41.38,-145.44 18.41,-87.04 48.99,-54 57.13,-45.21 67.82,-38.55 78.81,-33.53"/>
<polygon fill="black" stroke="black" points="80.17,-36.75 88.07,-29.69 77.49,-30.29 80.17,-36.75"/>
<text text-anchor="middle" x="96.49" y="-101.3" font-family="Times,serif" font-size="14.00">Enter Username</text>
</g>
<!-- StateD -->
<g id="node4" class="node">
<title>StateD</title>
<ellipse fill="none" stroke="black" cx="201.99" cy="-105" rx="36.29" ry="18"/>
<text text-anchor="middle" x="201.99" y="-101.3" font-family="Times,serif" font-size="14.00">Error</text>
</g>
<!-- StateB&#45;&gt;StateD -->
<g id="edge4" class="edge">
<title>StateB&#45;&gt;StateD</title>
<path fill="none" stroke="black" d="M60.41,-173.87C58.66,-163.25 58.59,-149.97 65.99,-141 90.29,-111.55 113.13,-132.95 149.99,-123 154.34,-121.83 158.86,-120.51 163.34,-119.13"/>
<polygon fill="black" stroke="black" points="164.53,-122.43 173,-116.07 162.41,-115.75 164.53,-122.43"/>
<text text-anchor="middle" x="122.99" y="-144.8" font-family="Times,serif" font-size="14.00">Enter Password</text>
</g>
<!-- StateC&#45;&gt;StateD -->
<g id="edge3" class="edge">
<title>StateC&#45;&gt;StateD</title>
<path fill="none" stroke="black" d="M159.92,-33.78C168.22,-39.24 176.76,-46.06 182.99,-54 188.32,-60.78 192.28,-69.21 195.17,-77.21"/>
<polygon fill="black" stroke="black" points="191.9,-78.49 198.27,-86.95 198.57,-76.36 191.9,-78.49"/>
<text text-anchor="middle" x="254.49" y="-57.8" font-family="Times,serif" font-size="14.00">Invalid Username</text>
</g>
<!-- StateC&#45;&gt;StateD -->
<g id="edge6" class="edge">
<title>StateC&#45;&gt;StateD</title>
<path fill="none" stroke="black" d="M188.18,-21.61C237.93,-25.24 305.2,-33.83 321.99,-54 345.46,-82.18 290.8,-94.73 247.74,-100.14"/>
<polygon fill="black" stroke="black" points="247.18,-96.68 237.65,-101.31 247.98,-103.63 247.18,-96.68"/>
<text text-anchor="middle" x="412.99" y="-57.8" font-family="Times,serif" font-size="14.00">Enter Correct Password</text>
</g>
<!-- StateD&#45;&gt;StateB -->
<g id="edge7" class="edge">
<title>StateD&#45;&gt;StateB</title>
<path fill="none" stroke="black" d="M198.38,-123.02C195.25,-133.86 189.64,-147.44 179.99,-156 165.97,-168.45 147.62,-176.47 129.71,-181.64"/>
<polygon fill="black" stroke="black" points="128.62,-178.31 119.84,-184.23 130.4,-185.08 128.62,-178.31"/>
<text text-anchor="middle" x="250.49" y="-144.8" font-family="Times,serif" font-size="14.00">Login Successful</text>
</g>
<!-- StateD&#45;&gt;StateC -->
<g id="edge5" class="edge">
<title>StateD&#45;&gt;StateC</title>
<path fill="none" stroke="black" d="M173.3,-93.91C165.77,-91.46 157.63,-88.98 149.99,-87 109.24,-76.44 83.79,-101.47 56.99,-69 45.03,-54.5 60.8,-42.6 80.92,-34.05"/>
<polygon fill="black" stroke="black" points="82.34,-37.26 90.38,-30.36 79.79,-30.74 82.34,-37.26"/>
<text text-anchor="middle" x="117.99" y="-57.8" font-family="Times,serif" font-size="14.00">Invalid Password</text>
</g>
</g>
</svg>
