<?xml version="1.0" encoding="UTF-8" standalone="no"?>
<!DOCTYPE svg PUBLIC "-//W3C//DTD SVG 1.1//EN"
 "http://www.w3.org/Graphics/SVG/1.1/DTD/svg11.dtd">
<!-- Generated by graphviz version 2.42.4 (0)
 -->
<!-- Title: LoginWorkflow Pages: 1 -->
<svg width="186pt" height="130pt"
 viewBox="0.00 0.00 186.44 130.01" xmlns="http://www.w3.org/2000/svg" xmlns:xlink="http://www.w3.org/1999/xlink">
<g id="graph0" class="graph" transform="scale(1 1) rotate(0) translate(4 126.01)">
<title>LoginWorkflow</title>
<polygon fill="white" stroke="transparent" points="-4,4 -4,-126.01 182.44,-126.01 182.44,4 -4,4"/>
<!-- logged_out -->
<g id="node1" class="node">
<title>logged_out</title>
<polygon fill="none" stroke="black" points="95,-72.63 0,-72.63 0,-36.63 95,-36.63 95,-72.63"/>
<text text-anchor="middle" x="47.5" y="-50.93" font-family="Times,serif" font-size="14.00">logged_out</text>
</g>
<!-- logging_in -->
<g id="node2" class="node">
<title>logging_in</title>
<polygon fill="none" stroke="black" points="178.44,-85.35 88.44,-85.35 88.44,-49.35 178.44,-49.35 178.44,-85.35"/>
<text text-anchor="middle" x="133.44" y="-63.65" font-family="Times,serif" font-size="14.00">logging_in</text>
</g>
<!-- logged_out&#45;&gt;logging_in -->
<g id="edge1" class="edge">
<title>logged_out&#45;&gt;logging_in</title>
<path fill="none" stroke="black" d="M95.24,-61.7C95.32,-61.71 95.4,-61.72 95.47,-61.73"/>
<polygon fill="black" stroke="black" points="85.3,-63.76 95.71,-61.77 86.33,-56.84 85.3,-63.76"/>
<text text-anchor="middle" x="120.36" y="-50.52" font-family="Times,serif" font-size="14.00">submit</text>
</g>
<!-- logged_in -->
<g id="node3" class="node">
<title>logged_in</title>
<polygon fill="none" stroke="black" points="139.29,-36 54.29,-36 54.29,0 139.29,0 139.29,-36"/>
<text text-anchor="middle" x="96.79" y="-14.3" font-family="Times,serif" font-size="14.00">logged_in</text>
</g>
<!-- logging_in&#45;&gt;logged_in -->
<g id="edge2" class="edge">
<title>logging_in&#45;&gt;logged_in</title>
<path fill="none" stroke="black" d="M120,-49.26C118.8,-47.65 117.58,-46 116.35,-44.34"/>
<polygon fill="black" stroke="black" points="119,-42.04 110.23,-36.09 113.38,-46.21 119,-42.04"/>
<text text-anchor="middle" x="143.17" y="-35.6" font-family="Times,serif" font-size="14.00">submit</text>
</g>
<!-- error -->
<g id="node4" class="node">
<title>error</title>
<polygon fill="none" stroke="black" points="111.06,-122.01 57.06,-122.01 57.06,-86.01 111.06,-86.01 111.06,-122.01"/>
<text text-anchor="middle" x="84.06" y="-100.31" font-family="Times,serif" font-size="14.00">error</text>
</g>
<!-- logging_in&#45;&gt;error -->
<g id="edge3" class="edge">
<title>logging_in&#45;&gt;error</title>
<path fill="none" stroke="black" d="M109.03,-85.47C108.94,-85.54 108.84,-85.61 108.74,-85.68"/>
<polygon fill="black" stroke="black" points="114.39,-77.13 108.45,-85.9 118.57,-82.75 114.39,-77.13"/>
<text text-anchor="middle" x="132.39" y="-89.38" font-family="Times,serif" font-size="14.00">failure</text>
</g>
<!-- logged_in&#45;&gt;logged_out -->
<g id="edge5" class="edge">
<title>logged_in&#45;&gt;logged_out</title>
<path fill="none" stroke="black" d="M72.43,-36.1C72.34,-36.17 72.24,-36.25 72.14,-36.32"/>
<polygon fill="black" stroke="black" points="77.79,-27.76 71.85,-36.53 81.97,-33.38 77.79,-27.76"/>
<text text-anchor="middle" x="49.29" y="-25.01" font-family="Times,serif" font-size="14.00">logout</text>
</g>
<!-- logged_in&#45;&gt;error -->
<g id="edge4" class="edge">
<title>logged_in&#45;&gt;error</title>
<path fill="none" stroke="black" d="M88.31,-36.25C85.48,-47.69 83.06,-62.66 81.85,-75.62"/>
<polygon fill="black" stroke="black" points="78.33,-75.7 81.14,-85.92 85.32,-76.18 78.33,-75.7"/>
<text text-anchor="middle" x="61.58" y="-59.74" font-family="Times,serif" font-size="14.00">failure</text>
</g>
<!-- error&#45;&gt;logged_out -->
<g id="edge7" class="edge">
<title>error&#45;&gt;logged_out</title>
<path fill="none" stroke="black" d="M70.65,-85.91C69.46,-84.3 68.24,-82.64 67.01,-80.98"/>
<polygon fill="black" stroke="black" points="69.67,-78.69 60.9,-72.74 64.04,-82.86 69.67,-78.69"/>
<text text-anchor="middle" x="43.83" y="-87.24" font-family="Times,serif" font-size="14.00">submit</text>
</g>
<!-- error&#45;&gt;logged_in -->
<g id="edge6" class="edge">
<title>error&#45;&gt;logged_in</title>
<path fill="none" stroke="black" d="M92.54,-85.76C95.36,-74.33 97.79,-59.35 99,-46.39"/>
<polygon fill="black" stroke="black" points="102.51,-46.31 99.71,-36.09 95.53,-45.83 102.51,-46.31"/>
<text text-anchor="middle" x="70.77" y="-69.88" font-family="Times,serif" font-size="14.00">submit</text>
</g>
</g>
</svg>
