<?xml version="1.0" encoding="UTF-8" standalone="no"?>
<!DOCTYPE svg PUBLIC "-//W3C//DTD SVG 1.1//EN"
 "http://www.w3.org/Graphics/SVG/1.1/DTD/svg11.dtd">
<!-- Generated by graphviz version 2.42.4 (0)
 -->
<!-- Title: media_player_state_machine Pages: 1 -->
<svg width="577pt" height="116pt"
 viewBox="0.00 0.00 577.00 116.00" xmlns="http://www.w3.org/2000/svg" xmlns:xlink="http://www.w3.org/1999/xlink">
<g id="graph0" class="graph" transform="scale(1 1) rotate(0) translate(4 112)">
<title>media_player_state_machine</title>
<polygon fill="white" stroke="transparent" points="-4,4 -4,-112 573,-112 573,4 -4,4"/>
<!-- Stopped -->
<g id="node1" class="node state stopped">
<title>Stopped</title>
<polygon fill="transparent" stroke="transparent" stroke-width="2" points="72,-72 0,-72 0,-36 72,-36 72,-72"/>
<text text-anchor="start" x="11" y="-50.4" font-family="Helvetica,sans-Serif" font-size="12.00">Stopped</text>
<path fill="none" stroke="black" stroke-width="2" d="M12,-37.5C12,-37.5 60,-37.5 60,-37.5 65.5,-37.5 71,-43 71,-48.5 71,-48.5 71,-59.5 71,-59.5 71,-65 65.5,-70.5 60,-70.5 60,-70.5 12,-70.5 12,-70.5 6.5,-70.5 1,-65 1,-59.5 1,-59.5 1,-48.5 1,-48.5 1,-43 6.5,-37.5 12,-37.5"/>
</g>
<!-- Playing -->
<g id="node2" class="node state playing">
<title>Playing</title>
<polygon fill="transparent" stroke="transparent" stroke-width="2" points="159.5,-72 94.5,-72 94.5,-36 159.5,-36 159.5,-72"/>
<text text-anchor="start" x="106" y="-50.4" font-family="Helvetica,sans-Serif" font-size="12.00">Playing</text>
<path fill="none" stroke="black" stroke-width="2" d="M106.5,-37.5C106.5,-37.5 147.5,-37.5 147.5,-37.5 153,-37.5 158.5,-43 158.5,-48.5 158.5,-48.5 158.5,-59.5 158.5,-59.5 158.5,-65 153,-70.5 147.5,-70.5 147.5,-70.5 106.5,-70.5 106.5,-70.5 101,-70.5 95.5,-65 95.5,-59.5 95.5,-59.5 95.5,-48.5 95.5,-48.5 95.5,-43 101,-37.5 106.5,-37.5"/>
</g>
<!-- Paused -->
<g id="node3" class="node state paused">
<title>Paused</title>
<polygon fill="transparent" stroke="transparent" stroke-width="2" points="246.5,-72 181.5,-72 181.5,-36 246.5,-36 246.5,-72"/>
<text text-anchor="start" x="193" y="-50.4" font-family="Helvetica,sans-Serif" font-size="12.00">Paused</text>
<path fill="none" stroke="black" stroke-width="2" d="M193.5,-37.5C193.5,-37.5 234.5,-37.5 234.5,-37.5 240,-37.5 245.5,-43 245.5,-48.5 245.5,-48.5 245.5,-59.5 245.5,-59.5 245.5,-65 240,-70.5 234.5,-70.5 234.5,-70.5 193.5,-70.5 193.5,-70.5 188,-70.5 182.5,-65 182.5,-59.5 182.5,-59.5 182.5,-48.5 182.5,-48.5 182.5,-43 188,-37.5 193.5,-37.5"/>
</g>
<!-- resume -->
<g id="node4" class="node state playable">
<title>resume</title>
<polygon fill="black" stroke="black" stroke-width="2" points="341,-90 269,-90 269,-18 341,-18 341,-90"/>
</g>
<!-- play -->
<g id="node5" class="node state playable">
<title>play</title>
<path fill="none" stroke="black" stroke-width="2" d="M405,-108C405,-108 375,-108 375,-108 369,-108 363,-102 363,-96 363,-96 363,-12 363,-12 363,-6 369,0 375,0 375,0 405,0 405,0 411,0 417,-6 417,-12 417,-12 417,-96 417,-96 417,-102 411,-108 405,-108"/>
</g>
<!-- pause -->
<g id="node6" class="node state playable">
<title>pause</title>
<path fill="none" stroke="black" stroke-width="2" d="M481,-108C481,-108 451,-108 451,-108 445,-108 439,-102 439,-96 439,-96 439,-12 439,-12 439,-6 445,0 451,0 451,0 481,0 481,0 487,0 493,-6 493,-12 493,-12 493,-96 493,-96 493,-102 487,-108 481,-108"/>
</g>
<!-- stop -->
<g id="node7" class="node state playable">
<title>stop</title>
<path fill="none" stroke="black" stroke-width="2" d="M557,-108C557,-108 527,-108 527,-108 521,-108 515,-102 515,-96 515,-96 515,-12 515,-12 515,-6 521,0 527,0 527,0 557,0 557,0 563,0 569,-6 569,-12 569,-12 569,-96 569,-96 569,-102 563,-108 557,-108"/>
</g>
</g>
</svg>
