<?xml version="1.0" encoding="UTF-8" standalone="no"?>
<!DOCTYPE svg PUBLIC "-//W3C//DTD SVG 1.1//EN"
 "http://www.w3.org/Graphics/SVG/1.1/DTD/svg11.dtd">
<!-- Generated by graphviz version 2.42.4 (0)
 -->
<!-- Title: media_player_state_machine Pages: 1 -->
<svg width="443pt" height="116pt"
 viewBox="0.00 0.00 443.49 116.00" xmlns="http://www.w3.org/2000/svg" xmlns:xlink="http://www.w3.org/1999/xlink">
<g id="graph0" class="graph" transform="scale(1 1) rotate(0) translate(4 112)">
<title>media_player_state_machine</title>
<polygon fill="white" stroke="transparent" points="-4,4 -4,-112 439.49,-112 439.49,4 -4,4"/>
<!-- State -->
<g id="node1" class="node">
<title>State</title>
<ellipse fill="none" stroke="black" cx="162.4" cy="-18" rx="36" ry="18"/>
<text text-anchor="middle" x="162.4" y="-14.3" font-family="Times,serif" font-size="14.00">State</text>
</g>
<!-- Stopped -->
<g id="node2" class="node">
<title>Stopped</title>
<ellipse fill="none" stroke="black" cx="49.4" cy="-90" rx="49.29" ry="18"/>
<text text-anchor="middle" x="49.4" y="-86.3" font-family="Times,serif" font-size="14.00">Stopped</text>
</g>
<!-- Stopped&#45;&gt;State -->
<g id="edge1" class="edge">
<title>Stopped&#45;&gt;State</title>
<path fill="none" stroke="black" d="M69.01,-73.29C85.48,-62.29 109.14,-47.6 128.59,-36.28"/>
<polygon fill="black" stroke="black" points="130.55,-39.19 137.47,-31.18 127.06,-33.12 130.55,-39.19"/>
</g>
<!-- Stopped&#45;&gt;State -->
<g id="edge4" class="edge">
<title>Stopped&#45;&gt;State</title>
<path fill="none" stroke="black" d="M77.52,-75C95.33,-64.81 118.1,-50.85 135.64,-39.41"/>
<polygon fill="black" stroke="black" points="137.88,-42.13 144.29,-33.7 134.02,-36.29 137.88,-42.13"/>
</g>
<!-- Playing -->
<g id="node3" class="node">
<title>Playing</title>
<ellipse fill="none" stroke="black" cx="162.4" cy="-90" rx="45.49" ry="18"/>
<text text-anchor="middle" x="162.4" y="-86.3" font-family="Times,serif" font-size="14.00">Playing</text>
</g>
<!-- Playing&#45;&gt;State -->
<g id="edge2" class="edge">
<title>Playing&#45;&gt;State</title>
<path fill="none" stroke="black" d="M156.52,-72.05C155.69,-64.23 155.45,-54.75 155.81,-45.98"/>
<polygon fill="black" stroke="black" points="159.31,-46.01 156.53,-35.79 152.33,-45.51 159.31,-46.01"/>
</g>
<!-- Playing&#45;&gt;State -->
<g id="edge5" class="edge">
<title>Playing&#45;&gt;State</title>
<path fill="none" stroke="black" d="M168.27,-72.05C169.1,-64.23 169.34,-54.75 168.99,-45.98"/>
<polygon fill="black" stroke="black" points="172.46,-45.51 168.26,-35.79 165.48,-46.01 172.46,-45.51"/>
</g>
<!-- Pausing -->
<g id="node4" class="node">
<title>Pausing</title>
<ellipse fill="none" stroke="black" cx="273.4" cy="-90" rx="47.39" ry="18"/>
<text text-anchor="middle" x="273.4" y="-86.3" font-family="Times,serif" font-size="14.00">Pausing</text>
</g>
<!-- Pausing&#45;&gt;State -->
<g id="edge3" class="edge">
<title>Pausing&#45;&gt;State</title>
<path fill="none" stroke="black" d="M245.96,-75.17C228.44,-64.99 206,-50.99 188.71,-39.51"/>
<polygon fill="black" stroke="black" points="190.44,-36.45 180.19,-33.77 186.53,-42.26 190.44,-36.45"/>
</g>
<!-- Pausing&#45;&gt;State -->
<g id="edge6" class="edge">
<title>Pausing&#45;&gt;State</title>
<path fill="none" stroke="black" d="M254.48,-73.46C238.36,-62.48 215.05,-47.74 195.85,-36.36"/>
<polygon fill="black" stroke="black" points="197.48,-33.26 187.08,-31.24 193.95,-39.3 197.48,-33.26"/>
</g>
<!-- Resume -->
<g id="node5" class="node">
<title>Resume</title>
<ellipse fill="none" stroke="black" cx="387.4" cy="-90" rx="48.19" ry="18"/>
<text text-anchor="middle" x="387.4" y="-86.3" font-family="Times,serif" font-size="14.00">Resume</text>
</g>
<!-- Resume&#45;&gt;State -->
<g id="edge7" class="edge">
<title>Resume&#45;&gt;State</title>
<path fill="none" stroke="black" d="M351.74,-77.91C310.9,-65.2 244.18,-44.45 201.82,-31.27"/>
<polygon fill="black" stroke="black" points="202.72,-27.88 192.13,-28.25 200.64,-34.56 202.72,-27.88"/>
</g>
</g>
</svg>
