<?xml version="1.0" encoding="UTF-8" standalone="no"?>
<!DOCTYPE svg PUBLIC "-//W3C//DTD SVG 1.1//EN"
 "http://www.w3.org/Graphics/SVG/1.1/DTD/svg11.dtd">
<!-- Generated by graphviz version 2.42.4 (0)
 -->
<!-- Title: TCP_connection_states Pages: 1 -->
<svg width="240pt" height="260pt"
 viewBox="0.00 0.00 239.93 260.00" xmlns="http://www.w3.org/2000/svg" xmlns:xlink="http://www.w3.org/1999/xlink">
<g id="graph0" class="graph" transform="scale(1 1) rotate(0) translate(4 256)">
<title>TCP_connection_states</title>
<polygon fill="white" stroke="transparent" points="-4,4 -4,-256 235.93,-256 235.93,4 -4,4"/>
<!-- State_Closed -->
<g id="node1" class="node">
<title>State_Closed</title>
<ellipse fill="none" stroke="black" cx="155.89" cy="-234" rx="71.49" ry="18"/>
<text text-anchor="middle" x="155.89" y="-230.3" font-family="Times,serif" font-size="14.00">State_Closed</text>
</g>
<!-- State_SynSent -->
<g id="node2" class="node">
<title>State_SynSent</title>
<ellipse fill="none" stroke="black" cx="102.89" cy="-162" rx="79.09" ry="18"/>
<text text-anchor="middle" x="102.89" y="-158.3" font-family="Times,serif" font-size="14.00">State_SynSent</text>
</g>
<!-- State_Closed&#45;&gt;State_SynSent -->
<g id="edge1" class="edge">
<title>State_Closed&#45;&gt;State_SynSent</title>
<path fill="none" stroke="black" d="M143.06,-216.05C136.68,-207.63 128.85,-197.28 121.79,-187.97"/>
<polygon fill="black" stroke="black" points="124.43,-185.65 115.6,-179.79 118.85,-189.87 124.43,-185.65"/>
</g>
<!-- State_Established -->
<g id="node3" class="node">
<title>State_Established</title>
<ellipse fill="none" stroke="black" cx="94.89" cy="-90" rx="94.78" ry="18"/>
<text text-anchor="middle" x="94.89" y="-86.3" font-family="Times,serif" font-size="14.00">State_Established</text>
</g>
<!-- State_SynSent&#45;&gt;State_Established -->
<g id="edge2" class="edge">
<title>State_SynSent&#45;&gt;State_Established</title>
<path fill="none" stroke="black" d="M100.91,-143.7C100.03,-135.98 98.97,-126.71 97.99,-118.11"/>
<polygon fill="black" stroke="black" points="101.46,-117.64 96.85,-108.1 94.5,-118.44 101.46,-117.64"/>
</g>
<!-- State_FinWait -->
<g id="node4" class="node">
<title>State_FinWait</title>
<ellipse fill="none" stroke="black" cx="155.89" cy="-18" rx="76.09" ry="18"/>
<text text-anchor="middle" x="155.89" y="-14.3" font-family="Times,serif" font-size="14.00">State_FinWait</text>
</g>
<!-- State_Established&#45;&gt;State_FinWait -->
<g id="edge3" class="edge">
<title>State_Established&#45;&gt;State_FinWait</title>
<path fill="none" stroke="black" d="M109.66,-72.05C117.15,-63.46 126.39,-52.86 134.63,-43.4"/>
<polygon fill="black" stroke="black" points="137.33,-45.63 141.26,-35.79 132.05,-41.03 137.33,-45.63"/>
</g>
<!-- State_FinWait&#45;&gt;State_Closed -->
<g id="edge4" class="edge">
<title>State_FinWait&#45;&gt;State_Closed</title>
<path fill="none" stroke="black" d="M174.48,-35.7C183.74,-45.28 193.98,-58.15 198.89,-72 214.98,-117.36 207.27,-134.74 190.89,-180 187.38,-189.7 181.77,-199.38 176.05,-207.77"/>
<polygon fill="black" stroke="black" points="173.14,-205.82 170.14,-215.99 178.82,-209.91 173.14,-205.82"/>
</g>
</g>
</svg>
