<?xml version="1.0" encoding="UTF-8" standalone="no"?>
<!DOCTYPE svg PUBLIC "-//W3C//DTD SVG 1.1//EN"
 "http://www.w3.org/Graphics/SVG/1.1/DTD/svg11.dtd">
<!-- Generated by graphviz version 2.42.4 (0)
 -->
<!-- Title: tcp_connection_states Pages: 1 -->
<svg width="120pt" height="233pt"
 viewBox="0.00 0.00 120.00 233.00" xmlns="http://www.w3.org/2000/svg" xmlns:xlink="http://www.w3.org/1999/xlink">
<g id="graph0" class="graph" transform="scale(1 1) rotate(0) translate(4 229)">
<title>tcp_connection_states</title>
<polygon fill="white" stroke="transparent" points="-4,4 -4,-229 116,-229 116,4 -4,4"/>
<!-- CLOSED -->
<g id="node1" class="node ipnode">
<title>CLOSED</title>
<ellipse fill="transparent" stroke="transparent" cx="48" cy="-207" rx="18" ry="18"/>
<text text-anchor="middle" x="48" y="-203.3" font-family="Times,serif" font-size="14.00">CLOSED</text>
</g>
<!-- SYN_SENT -->
<g id="node2" class="node ipnode">
<title>SYN_SENT</title>
<ellipse fill="transparent" stroke="transparent" cx="18" cy="-144" rx="18" ry="18"/>
<text text-anchor="middle" x="18" y="-140.3" font-family="Times,serif" font-size="14.00"> </text>
</g>
<!-- CLOSED&#45;&gt;SYN_SENT -->
<g id="edge1" class="edge running">
<title>CLOSED&#45;&gt;SYN_SENT</title>
<path fill="none" stroke="black" d="M35.22,-193.95C31.78,-190.11 28.36,-185.64 26,-181 24.57,-178.18 23.39,-175.11 22.42,-171.99"/>
<polygon fill="black" stroke="black" points="25.77,-170.96 19.99,-162.09 18.98,-172.63 25.77,-170.96"/>
<text text-anchor="start" x="26" y="-173" font-family="Helvetica,sans-Serif" font-size="10.00">arrow &#160;&#160;</text>
</g>
<!-- ESTABLISHED -->
<g id="node3" class="node ipnode">
<title>ESTABLISHED</title>
<ellipse fill="transparent" stroke="transparent" cx="19" cy="-81" rx="18" ry="18"/>
<text text-anchor="middle" x="19" y="-77.3" font-family="Times,serif" font-size="14.00"> </text>
</g>
<!-- SYN_SENT&#45;&gt;ESTABLISHED -->
<g id="edge2" class="edge running">
<title>SYN_SENT&#45;&gt;ESTABLISHED</title>
<path fill="none" stroke="black" d="M16.24,-125.79C15.95,-121.51 15.77,-116.84 16.08,-109.28"/>
<polygon fill="black" stroke="black" points="19.59,-109.11 16.69,-98.92 12.6,-108.69 19.59,-109.11"/>
<text text-anchor="start" x="16" y="-110" font-family="Helvetica,sans-Serif" font-size="10.00">arrow &#160;&#160;</text>
</g>
<!-- FIN_WAIT -->
<g id="node4" class="node ipnode">
<title>FIN_WAIT</title>
<ellipse fill="transparent" stroke="transparent" cx="51" cy="-18" rx="18" ry="18"/>
<text text-anchor="middle" x="51" y="-14.3" font-family="Times,serif" font-size="14.00"> </text>
</g>
<!-- ESTABLISHED&#45;&gt;FIN_WAIT -->
<g id="edge3" class="edge running">
<title>ESTABLISHED&#45;&gt;FIN_WAIT</title>
<path fill="none" stroke="black" d="M20.24,-62.82C21.22,-56.61 22.95,-49.73 26,-44 27.21,-41.72 28.7,-39.52 30.34,-37.43"/>
<polygon fill="black" stroke="black" points="32.98,-39.73 37.15,-29.99 27.82,-35 32.98,-39.73"/>
<text text-anchor="start" x="26" y="-47" font-family="Helvetica,sans-Serif" font-size="10.00">arrow &#160;&#160;</text>
</g>
<!-- FIN_WAIT&#45;&gt;CLOSED -->
<g id="edge4" class="edge running">
<title>FIN_WAIT&#45;&gt;CLOSED</title>
<path fill="none" stroke="black" d="M60.07,-33.61C61.69,-36.91 63.14,-40.48 64,-44 78.46,-103.15 81.1,-122.56 64,-181 63.78,-181.74 63.54,-182.48 63.26,-183.22"/>
<polygon fill="black" stroke="black" points="60.01,-181.9 58.65,-192.41 66.26,-185.04 60.01,-181.9"/>
<text text-anchor="start" x="75" y="-110" font-family="Helvetica,sans-Serif" font-size="10.00">arrow &#160;&#160;</text>
</g>
</g>
</svg>
