<?xml version="1.0" encoding="UTF-8" standalone="no"?>
<!DOCTYPE svg PUBLIC "-//W3C//DTD SVG 1.1//EN"
 "http://www.w3.org/Graphics/SVG/1.1/DTD/svg11.dtd">
<!-- Generated by graphviz version 2.42.4 (0)
 -->
<!-- Title: order_states Pages: 1 -->
<svg width="117pt" height="208pt"
 viewBox="0.00 0.00 116.50 208.00" xmlns="http://www.w3.org/2000/svg" xmlns:xlink="http://www.w3.org/1999/xlink">
<g id="graph0" class="graph" transform="scale(1 1) rotate(0) translate(4 204)">
<title>order_states</title>
<polygon fill="white" stroke="transparent" points="-4,4 -4,-204 112.5,-204 112.5,4 -4,4"/>
<!-- Pending -->
<g id="node1" class="node node large">
<title>Pending</title>
<ellipse fill="black" stroke="black" stroke-width="2" cx="5.5" cy="-182" rx="5.5" ry="5.5"/>
</g>
<!-- Processing -->
<g id="node2" class="node node special large">
<title>Processing</title>
<path fill="none" stroke="black" d="M96.5,-74C96.5,-74 40.5,-74 40.5,-74 34.5,-74 28.5,-68 28.5,-62 28.5,-62 28.5,-50 28.5,-50 28.5,-44 34.5,-38 40.5,-38 40.5,-38 96.5,-38 96.5,-38 102.5,-38 108.5,-44 108.5,-50 108.5,-50 108.5,-62 108.5,-62 108.5,-68 102.5,-74 96.5,-74"/>
<text text-anchor="middle" x="68.5" y="-52.9" font-family="Helvetica,sans-Serif" font-size="12.00">processing</text>
</g>
<!-- Cancelled -->
<g id="node3" class="node node large">
<title>Cancelled</title>
<ellipse fill="black" stroke="black" stroke-width="2" cx="68.5" cy="-5.5" rx="5.5" ry="5.5"/>
</g>
<!-- Processing&#45;&gt;Cancelled -->
<g id="edge1" class="edge line">
<title>Processing&#45;&gt;Cancelled</title>
<path fill="none" stroke="black" d="M68.5,-37.76C68.5,-32.5 68.5,-26.74 68.5,-21.63"/>
<polygon fill="black" stroke="black" points="72,-21.36 68.5,-11.36 65,-21.36 72,-21.36"/>
<text text-anchor="middle" x="84.5" y="-22" font-family="Helvetica,sans-Serif" font-size="10.00">cancel</text>
</g>
<!-- Shipped -->
<g id="node4" class="node node large">
<title>Shipped</title>
<path fill="none" stroke="black" d="M88,-137C88,-137 49,-137 49,-137 43,-137 37,-131 37,-125 37,-125 37,-113 37,-113 37,-107 43,-101 49,-101 49,-101 88,-101 88,-101 94,-101 100,-107 100,-113 100,-113 100,-125 100,-125 100,-131 94,-137 88,-137"/>
<text text-anchor="middle" x="68.5" y="-115.9" font-family="Helvetica,sans-Serif" font-size="12.00">shipped</text>
</g>
<!-- Shipped&#45;&gt;Processing -->
<g id="edge2" class="edge line">
<title>Shipped&#45;&gt;Processing</title>
<path fill="none" stroke="black" d="M68.5,-100.68C68.5,-95.62 68.5,-89.95 68.5,-84.42"/>
<polygon fill="black" stroke="black" points="72,-84.15 68.5,-74.15 65,-84.15 72,-84.15"/>
<text text-anchor="middle" x="79" y="-85" font-family="Helvetica,sans-Serif" font-size="10.00">ship</text>
</g>
<!-- Delivered -->
<g id="node5" class="node node large">
<title>Delivered</title>
<path fill="none" stroke="black" d="M92,-200C92,-200 45,-200 45,-200 39,-200 33,-194 33,-188 33,-188 33,-176 33,-176 33,-170 39,-164 45,-164 45,-164 92,-164 92,-164 98,-164 104,-170 104,-176 104,-176 104,-188 104,-188 104,-194 98,-200 92,-200"/>
<text text-anchor="middle" x="68.5" y="-178.9" font-family="Helvetica,sans-Serif" font-size="12.00">delivered</text>
</g>
<!-- Delivered&#45;&gt;Shipped -->
<g id="edge3" class="edge line">
<title>Delivered&#45;&gt;Shipped</title>
<path fill="none" stroke="black" d="M68.5,-163.68C68.5,-158.62 68.5,-152.95 68.5,-147.42"/>
<polygon fill="black" stroke="black" points="72,-147.15 68.5,-137.15 65,-147.15 72,-147.15"/>
<text text-anchor="middle" x="85.5" y="-148" font-family="Helvetica,sans-Serif" font-size="10.00">deliver</text>
</g>
</g>
</svg>
