<?xml version="1.0" encoding="UTF-8" standalone="no"?>
<!DOCTYPE svg PUBLIC "-//W3C//DTD SVG 1.1//EN"
 "http://www.w3.org/Graphics/SVG/1.1/DTD/svg11.dtd">
<!-- Generated by graphviz version 2.42.4 (0)
 -->
<!-- Title: order_processing Pages: 1 -->
<svg width="325pt" height="260pt"
 viewBox="0.00 0.00 325.49 260.00" xmlns="http://www.w3.org/2000/svg" xmlns:xlink="http://www.w3.org/1999/xlink">
<g id="graph0" class="graph" transform="scale(1 1) rotate(0) translate(4 256)">
<title>order_processing</title>
<polygon fill="white" stroke="transparent" points="-4,4 -4,-256 321.49,-256 321.49,4 -4,4"/>
<!-- State -->
<g id="node1" class="node">
<title>State</title>
<ellipse fill="none" stroke="black" cx="35.75" cy="-234" rx="36" ry="18"/>
<text text-anchor="middle" x="35.75" y="-230.3" font-family="Times,serif" font-size="14.00">State</text>
</g>
<!-- Pending -->
<g id="node2" class="node">
<title>Pending</title>
<ellipse fill="none" stroke="black" cx="107.75" cy="-162" rx="48.19" ry="18"/>
<text text-anchor="middle" x="107.75" y="-158.3" font-family="Times,serif" font-size="14.00">Pending</text>
</g>
<!-- Processing -->
<g id="node3" class="node">
<title>Processing</title>
<ellipse fill="none" stroke="black" cx="145.75" cy="-90" rx="61.99" ry="18"/>
<text text-anchor="middle" x="145.75" y="-86.3" font-family="Times,serif" font-size="14.00">Processing</text>
</g>
<!-- Pending&#45;&gt;Processing -->
<g id="edge1" class="edge">
<title>Pending&#45;&gt;Processing</title>
<path fill="none" stroke="black" d="M116.95,-144.05C121.31,-136.01 126.64,-126.2 131.51,-117.23"/>
<polygon fill="black" stroke="black" points="134.67,-118.73 136.37,-108.28 128.52,-115.39 134.67,-118.73"/>
</g>
<!-- Delivered -->
<g id="node5" class="node">
<title>Delivered</title>
<ellipse fill="none" stroke="black" cx="145.75" cy="-18" rx="55.79" ry="18"/>
<text text-anchor="middle" x="145.75" y="-14.3" font-family="Times,serif" font-size="14.00">Delivered</text>
</g>
<!-- Processing&#45;&gt;Delivered -->
<g id="edge2" class="edge">
<title>Processing&#45;&gt;Delivered</title>
<path fill="none" stroke="black" d="M145.75,-71.7C145.75,-63.98 145.75,-54.71 145.75,-46.11"/>
<polygon fill="black" stroke="black" points="149.25,-46.1 145.75,-36.1 142.25,-46.1 149.25,-46.1"/>
</g>
<!-- Shipped -->
<g id="node4" class="node">
<title>Shipped</title>
<ellipse fill="none" stroke="black" cx="268.75" cy="-234" rx="48.99" ry="18"/>
<text text-anchor="middle" x="268.75" y="-230.3" font-family="Times,serif" font-size="14.00">Shipped</text>
</g>
<!-- Cancelled -->
<g id="node6" class="node">
<title>Cancelled</title>
<ellipse fill="none" stroke="black" cx="145.75" cy="-234" rx="55.79" ry="18"/>
<text text-anchor="middle" x="145.75" y="-230.3" font-family="Times,serif" font-size="14.00">Cancelled</text>
</g>
<!-- Cancelled&#45;&gt;Pending -->
<g id="edge3" class="edge">
<title>Cancelled&#45;&gt;Pending</title>
<path fill="none" stroke="black" d="M136.55,-216.05C132.11,-207.89 126.7,-197.91 121.77,-188.82"/>
<polygon fill="black" stroke="black" points="124.71,-186.91 116.86,-179.79 118.56,-190.25 124.71,-186.91"/>
</g>
<!-- Cancelled&#45;&gt;Processing -->
<g id="edge4" class="edge">
<title>Cancelled&#45;&gt;Processing</title>
<path fill="none" stroke="black" d="M153.64,-215.75C157.85,-205.58 162.6,-192.33 164.75,-180 167.49,-164.24 167.49,-159.76 164.75,-144 163.22,-135.24 160.38,-126.01 157.35,-117.75"/>
<polygon fill="black" stroke="black" points="160.54,-116.29 153.64,-108.25 154.02,-118.84 160.54,-116.29"/>
</g>
</g>
</svg>
