<?xml version="1.0" encoding="UTF-8" standalone="no"?>
<!DOCTYPE svg PUBLIC "-//W3C//DTD SVG 1.1//EN"
 "http://www.w3.org/Graphics/SVG/1.1/DTD/svg11.dtd">
<!-- Generated by graphviz version 2.42.4 (0)
 -->
<!-- Title: PaymentProcessingStateMachine Pages: 1 -->
<svg width="909pt" height="116pt"
 viewBox="0.00 0.00 909.14 116.00" xmlns="http://www.w3.org/2000/svg" xmlns:xlink="http://www.w3.org/1999/xlink">
<g id="graph0" class="graph" transform="scale(1 1) rotate(0) translate(4 112)">
<title>PaymentProcessingStateMachine</title>
<polygon fill="white" stroke="transparent" points="-4,4 -4,-112 905.14,-112 905.14,4 -4,4"/>
<!-- State -->
<g id="node1" class="node">
<title>State</title>
<ellipse fill="none" stroke="black" cx="398.05" cy="-18" rx="36" ry="18"/>
<text text-anchor="middle" x="398.05" y="-14.3" font-family="Times,serif" font-size="14.00">State</text>
</g>
<!-- Initiated -->
<g id="node2" class="node">
<title>Initiated</title>
<ellipse fill="none" stroke="black" cx="50.05" cy="-90" rx="50.09" ry="18"/>
<text text-anchor="middle" x="50.05" y="-86.3" font-family="Times,serif" font-size="14.00">Initiated</text>
</g>
<!-- Initiated&#45;&gt;State -->
<g id="edge1" class="edge">
<title>Initiated&#45;&gt;State</title>
<path fill="none" stroke="black" d="M87.04,-77.73C94.3,-75.69 101.89,-73.68 109.05,-72 195.06,-51.77 296.99,-34.65 353.91,-25.7"/>
<polygon fill="black" stroke="black" points="354.67,-29.12 364.01,-24.12 353.58,-22.21 354.67,-29.12"/>
</g>
<!-- Authorizing -->
<g id="node3" class="node">
<title>Authorizing</title>
<ellipse fill="none" stroke="black" cx="183.05" cy="-90" rx="64.99" ry="18"/>
<text text-anchor="middle" x="183.05" y="-86.3" font-family="Times,serif" font-size="14.00">Authorizing</text>
</g>
<!-- Authorizing&#45;&gt;State -->
<g id="edge2" class="edge">
<title>Authorizing&#45;&gt;State</title>
<path fill="none" stroke="black" d="M220.02,-75.17C258.41,-62.09 318.09,-42.7 357.68,-30.46"/>
<polygon fill="black" stroke="black" points="358.76,-33.8 367.29,-27.52 356.7,-27.1 358.76,-33.8"/>
</g>
<!-- Authorizing&#45;&gt;State -->
<g id="edge6" class="edge">
<title>Authorizing&#45;&gt;State</title>
<path fill="none" stroke="black" d="M226.54,-76.57C266.06,-64.3 323.57,-45.6 360.97,-32.86"/>
<polygon fill="black" stroke="black" points="362.16,-36.16 370.49,-29.6 359.89,-29.53 362.16,-36.16"/>
</g>
<!-- Processing -->
<g id="node4" class="node">
<title>Processing</title>
<ellipse fill="none" stroke="black" cx="328.05" cy="-90" rx="61.99" ry="18"/>
<text text-anchor="middle" x="328.05" y="-86.3" font-family="Times,serif" font-size="14.00">Processing</text>
</g>
<!-- Processing&#45;&gt;State -->
<g id="edge3" class="edge">
<title>Processing&#45;&gt;State</title>
<path fill="none" stroke="black" d="M344.63,-72.41C353.78,-63.26 365.28,-51.76 375.26,-41.78"/>
<polygon fill="black" stroke="black" points="377.94,-44.06 382.53,-34.51 372.99,-39.11 377.94,-44.06"/>
</g>
<!-- Authorized -->
<g id="node5" class="node">
<title>Authorized</title>
<ellipse fill="none" stroke="black" cx="469.05" cy="-90" rx="61.99" ry="18"/>
<text text-anchor="middle" x="469.05" y="-86.3" font-family="Times,serif" font-size="14.00">Authorized</text>
</g>
<!-- Authorized&#45;&gt;State -->
<g id="edge4" class="edge">
<title>Authorized&#45;&gt;State</title>
<path fill="none" stroke="black" d="M452.22,-72.41C442.94,-63.26 431.28,-51.76 421.15,-41.78"/>
<polygon fill="black" stroke="black" points="423.36,-39.04 413.78,-34.51 418.44,-44.02 423.36,-39.04"/>
</g>
<!-- Capturing -->
<g id="node6" class="node">
<title>Capturing</title>
<ellipse fill="none" stroke="black" cx="607.05" cy="-90" rx="57.69" ry="18"/>
<text text-anchor="middle" x="607.05" y="-86.3" font-family="Times,serif" font-size="14.00">Capturing</text>
</g>
<!-- Capturing&#45;&gt;State -->
<g id="edge5" class="edge">
<title>Capturing&#45;&gt;State</title>
<path fill="none" stroke="black" d="M566.37,-77.13C528.26,-65 471.95,-46.18 435.06,-33.26"/>
<polygon fill="black" stroke="black" points="435.8,-29.81 425.2,-29.78 433.47,-36.41 435.8,-29.81"/>
</g>
<!-- Capturing&#45;&gt;State -->
<g id="edge7" class="edge">
<title>Capturing&#45;&gt;State</title>
<path fill="none" stroke="black" d="M572.21,-75.5C535.25,-62.52 477.15,-43.09 438.28,-30.73"/>
<polygon fill="black" stroke="black" points="438.93,-27.27 428.34,-27.6 436.83,-33.95 438.93,-27.27"/>
</g>
<!-- Completed -->
<g id="node7" class="node">
<title>Completed</title>
<ellipse fill="none" stroke="black" cx="840.05" cy="-90" rx="61.19" ry="18"/>
<text text-anchor="middle" x="840.05" y="-86.3" font-family="Times,serif" font-size="14.00">Completed</text>
</g>
<!-- Failed -->
<g id="node8" class="node">
<title>Failed</title>
<ellipse fill="none" stroke="black" cx="722.05" cy="-90" rx="38.99" ry="18"/>
<text text-anchor="middle" x="722.05" y="-86.3" font-family="Times,serif" font-size="14.00">Failed</text>
</g>
<!-- Failed&#45;&gt;State -->
<g id="edge8" class="edge">
<title>Failed&#45;&gt;State</title>
<path fill="none" stroke="black" d="M692.82,-77.86C686.67,-75.74 680.19,-73.67 674.05,-72 593.31,-50.09 496.92,-33.75 442.06,-25.35"/>
<polygon fill="black" stroke="black" points="442.39,-21.86 431.98,-23.83 441.35,-28.79 442.39,-21.86"/>
</g>
</g>
</svg>
