<?xml version="1.0" encoding="UTF-8" standalone="no"?>
<!DOCTYPE svg PUBLIC "-//W3C//DTD SVG 1.1//EN"
 "http://www.w3.org/Graphics/SVG/1.1/DTD/svg11.dtd">
<!-- Generated by graphviz version 2.42.4 (0)
 -->
<!-- Title: traffic_light Pages: 1 -->
<svg width="282pt" height="66pt"
 viewBox="0.00 0.00 282.05 65.69" xmlns="http://www.w3.org/2000/svg" xmlns:xlink="http://www.w3.org/1999/xlink">
<g id="graph0" class="graph" transform="scale(1 1) rotate(0) translate(4 61.69)">
<title>traffic_light</title>
<polygon fill="white" stroke="transparent" points="-4,4 -4,-61.69 278.05,-61.69 278.05,4 -4,4"/>
<!-- red -->
<g id="node1" class="node">
<title>red</title>
<ellipse fill="red" stroke="black" cx="254.04" cy="-28.84" rx="20.03" ry="20.03"/>
<text text-anchor="middle" x="254.04" y="-26.34" font-family="Times,serif" font-size="10.00">red</text>
</g>
<!-- yellow -->
<g id="node2" class="node">
<title>yellow</title>
<ellipse fill="yellow" stroke="black" cx="28.84" cy="-28.84" rx="28.69" ry="28.69"/>
<text text-anchor="middle" x="28.84" y="-26.34" font-family="Times,serif" font-size="10.00">yellow</text>
</g>
<!-- green -->
<g id="node3" class="node">
<title>green</title>
<ellipse fill="green" stroke="black" cx="139.36" cy="-28.84" rx="27.84" ry="27.84"/>
<text text-anchor="middle" x="139.36" y="-26.34" font-family="Times,serif" font-size="10.00">green</text>
</g>
<!-- yellow&#45;&gt;green -->
<g id="edge2" class="edge">
<title>yellow&#45;&gt;green</title>
<path fill="none" stroke="black" d="M57.79,-28.84C71.13,-28.84 87.27,-28.84 101.59,-28.84"/>
<polygon fill="black" stroke="black" points="101.63,-32.34 111.63,-28.84 101.63,-25.34 101.63,-32.34"/>
<text text-anchor="middle" x="84.69" y="-32.64" font-family="Times,serif" font-size="14.00">go</text>
</g>
<!-- green&#45;&gt;red -->
<g id="edge1" class="edge">
<title>green&#45;&gt;red</title>
<path fill="none" stroke="black" d="M167.06,-28.84C184.09,-28.84 206.17,-28.84 223.69,-28.84"/>
<polygon fill="black" stroke="black" points="223.93,-32.34 233.93,-28.84 223.93,-25.34 223.93,-32.34"/>
<text text-anchor="middle" x="200.52" y="-32.64" font-family="Times,serif" font-size="14.00">wait</text>
</g>
</g>
</svg>
